<?xml version="1.0" standalone="no"?><!-- Generator: Gravit.io --><svg xmlns="http://www.w3.org/2000/svg" xmlns:xlink="http://www.w3.org/1999/xlink" style="isolation:isolate" viewBox="412.617 329.511 439.323 56.978" width="439.323" height="56.978"><g><linearGradient id="_lgradient_12" x1="0" y1="0.5" x2="1" y2="0.5" gradientTransform="matrix(-56.626,0,0,-37.751,469.243,386.489)" gradientUnits="userSpaceOnUse"><stop offset="1.3043478260869565%" stop-opacity="1" style="stop-color:rgb(75,174,231)"/><stop offset="97.82608695652173%" stop-opacity="1" style="stop-color:rgb(35,94,164)"/></linearGradient><path d=" M 450.306 377.051 L 469.243 358.114 L 459.867 348.738 L 440.93 367.675 L 421.993 348.738 L 412.617 358.114 L 431.554 377.051 L 431.492 377.113 L 440.868 386.489 L 440.93 386.427 L 440.991 386.489 L 450.368 377.113 L 450.306 377.051 Z " fill-rule="evenodd" fill="url(#_lgradient_12)"/><linearGradient id="_lgradient_13" x1="0" y1="0.5" x2="1" y2="0.5" gradientTransform="matrix(56.626,0,0,37.751,412.617,329.511)" gradientUnits="userSpaceOnUse"><stop offset="2.1739130434782608%" stop-opacity="1" style="stop-color:rgb(75,174,231)"/><stop offset="97.82608695652173%" stop-opacity="1" style="stop-color:rgb(35,94,164)"/></linearGradient><path d=" M 431.554 338.949 L 412.617 357.886 L 421.993 367.262 L 440.93 348.325 L 459.867 367.262 L 469.243 357.886 L 450.306 338.949 L 450.368 338.887 L 440.991 329.511 L 440.93 329.573 L 440.868 329.511 L 431.492 338.887 L 431.554 338.949 Z " fill-rule="evenodd" fill="url(#_lgradient_13)"/></g><path d=" M 772.703 370.87 L 772.703 345.67 L 777.095 345.67 L 777.095 366.838 L 785.591 366.838 L 785.591 370.87 L 772.703 370.87 L 772.703 370.87 Z  M 794.627 371.23 L 794.627 371.23 Q 792.179 371.23 790.379 369.97 L 790.379 369.97 L 790.379 369.97 Q 788.579 368.71 787.625 366.586 L 787.625 366.586 L 787.625 366.586 Q 786.671 364.462 786.671 361.906 L 786.671 361.906 L 786.671 361.906 Q 786.671 359.35 787.625 357.226 L 787.625 357.226 L 787.625 357.226 Q 788.579 355.102 790.379 353.842 L 790.379 353.842 L 790.379 353.842 Q 792.179 352.582 794.627 352.582 L 794.627 352.582 L 794.627 352.582 Q 797.075 352.582 798.893 353.842 L 798.893 353.842 L 798.893 353.842 Q 800.711 355.102 801.665 357.226 L 801.665 357.226 L 801.665 357.226 Q 802.619 359.35 802.619 361.906 L 802.619 361.906 L 802.619 361.906 Q 802.619 364.462 801.665 366.586 L 801.665 366.586 L 801.665 366.586 Q 800.711 368.71 798.893 369.97 L 798.893 369.97 L 798.893 369.97 Q 797.075 371.23 794.627 371.23 L 794.627 371.23 L 794.627 371.23 Z  M 794.627 367.702 L 794.627 367.702 Q 796.319 367.702 797.273 366.118 L 797.273 366.118 L 797.273 366.118 Q 798.227 364.534 798.227 361.906 L 798.227 361.906 L 798.227 361.906 Q 798.227 359.278 797.273 357.694 L 797.273 357.694 L 797.273 357.694 Q 796.319 356.11 794.627 356.11 L 794.627 356.11 L 794.627 356.11 Q 792.971 356.11 792.017 357.712 L 792.017 357.712 L 792.017 357.712 Q 791.063 359.314 791.063 361.906 L 791.063 361.906 L 791.063 361.906 Q 791.063 364.498 792.017 366.1 L 792.017 366.1 L 792.017 366.1 Q 792.971 367.702 794.627 367.702 L 794.627 367.702 L 794.627 367.702 Z  M 815.111 343.87 L 819.431 343.87 L 819.431 370.87 L 815.363 370.87 L 815.291 369.718 L 815.291 369.718 Q 814.427 370.474 813.437 370.852 L 813.437 370.852 L 813.437 370.852 Q 812.447 371.23 811.151 371.23 L 811.151 371.23 L 811.151 371.23 Q 808.919 371.23 807.299 369.97 L 807.299 369.97 L 807.299 369.97 Q 805.679 368.71 804.851 366.586 L 804.851 366.586 L 804.851 366.586 Q 804.023 364.462 804.023 361.906 L 804.023 361.906 L 804.023 361.906 Q 804.023 359.35 804.851 357.226 L 804.851 357.226 L 804.851 357.226 Q 805.679 355.102 807.299 353.842 L 807.299 353.842 L 807.299 353.842 Q 808.919 352.582 811.151 352.582 L 811.151 352.582 L 811.151 352.582 Q 813.491 352.582 815.111 353.986 L 815.111 353.986 L 815.111 343.87 L 815.111 343.87 Z  M 811.799 367.702 L 811.799 367.702 Q 813.563 367.702 814.445 366.136 L 814.445 366.136 L 814.445 366.136 Q 815.327 364.57 815.327 361.906 L 815.327 361.906 L 815.327 361.906 Q 815.327 359.242 814.445 357.676 L 814.445 357.676 L 814.445 357.676 Q 813.563 356.11 811.799 356.11 L 811.799 356.11 L 811.799 356.11 Q 810.215 356.11 809.315 357.694 L 809.315 357.694 L 809.315 357.694 Q 808.415 359.278 808.415 361.906 L 808.415 361.906 L 808.415 361.906 Q 808.415 364.534 809.315 366.118 L 809.315 366.118 L 809.315 366.118 Q 810.215 367.702 811.799 367.702 L 811.799 367.702 L 811.799 367.702 Z  M 829.151 379.87 L 829.151 379.87 Q 825.911 379.87 823.949 378.538 L 823.949 378.538 L 823.949 378.538 Q 821.987 377.206 821.987 374.83 L 821.987 374.83 L 821.987 374.83 Q 821.987 373.498 822.671 372.49 L 822.671 372.49 L 822.671 372.49 Q 823.355 371.482 824.687 370.69 L 824.687 370.69 L 824.687 370.69 Q 823.139 369.79 823.139 368.206 L 823.139 368.206 L 823.139 368.206 Q 823.139 366.658 824.831 365.65 L 824.831 365.65 L 824.831 365.65 Q 823.535 364.678 822.815 363.112 L 822.815 363.112 L 822.815 363.112 Q 822.095 361.546 822.095 359.674 L 822.095 359.674 L 822.095 359.674 Q 822.095 357.694 822.869 356.074 L 822.869 356.074 L 822.869 356.074 Q 823.643 354.454 825.119 353.518 L 825.119 353.518 L 825.119 353.518 Q 826.595 352.582 828.575 352.582 L 828.575 352.582 L 828.575 352.582 Q 830.915 352.582 832.535 353.878 L 832.535 353.878 L 832.535 353.878 Q 834.011 352.582 835.559 352.582 L 835.559 352.582 L 835.559 352.582 Q 836.027 352.582 836.459 352.654 L 836.459 352.654 L 836.135 355.426 L 836.135 355.426 Q 835.775 355.354 835.415 355.354 L 835.415 355.354 L 835.415 355.354 Q 834.659 355.354 834.047 355.642 L 834.047 355.642 L 834.047 355.642 Q 835.055 357.37 835.055 359.674 L 835.055 359.674 L 835.055 359.674 Q 835.055 361.654 834.281 363.274 L 834.281 363.274 L 834.281 363.274 Q 833.507 364.894 832.031 365.848 L 832.031 365.848 L 832.031 365.848 Q 830.555 366.802 828.575 366.802 L 828.575 366.802 L 828.575 366.802 Q 827.783 366.802 827.207 366.658 L 827.207 366.658 L 827.207 366.658 Q 826.883 366.91 826.883 367.27 L 826.883 367.27 L 826.883 367.27 Q 826.883 367.63 827.135 367.828 L 827.135 367.828 L 827.135 367.828 Q 827.387 368.026 827.999 368.17 L 827.999 368.17 L 831.707 369.034 L 831.707 369.034 Q 834.335 369.646 835.523 370.852 L 835.523 370.852 L 835.523 370.852 Q 836.711 372.058 836.711 374.218 L 836.711 374.218 L 836.711 374.218 Q 836.711 375.91 835.757 377.188 L 835.757 377.188 L 835.757 377.188 Q 834.803 378.466 833.075 379.168 L 833.075 379.168 L 833.075 379.168 Q 831.347 379.87 829.151 379.87 L 829.151 379.87 L 829.151 379.87 Z  M 828.575 363.562 L 828.575 363.562 Q 829.763 363.562 830.429 362.5 L 830.429 362.5 L 830.429 362.5 Q 831.095 361.438 831.095 359.674 L 831.095 359.674 L 831.095 359.674 Q 831.095 357.946 830.429 356.884 L 830.429 356.884 L 830.429 356.884 Q 829.763 355.822 828.575 355.822 L 828.575 355.822 L 828.575 355.822 Q 827.351 355.822 826.703 356.884 L 826.703 356.884 L 826.703 356.884 Q 826.055 357.946 826.055 359.674 L 826.055 359.674 L 826.055 359.674 Q 826.055 361.438 826.703 362.5 L 826.703 362.5 L 826.703 362.5 Q 827.351 363.562 828.575 363.562 L 828.575 363.562 L 828.575 363.562 Z  M 829.259 376.63 L 829.259 376.63 Q 830.915 376.63 831.941 376.072 L 831.941 376.072 L 831.941 376.072 Q 832.967 375.514 832.967 374.47 L 832.967 374.47 L 832.967 374.47 Q 832.967 373.606 832.409 373.12 L 832.409 373.12 L 832.409 373.12 Q 831.851 372.634 830.483 372.31 L 830.483 372.31 L 827.387 371.554 L 827.387 371.554 Q 826.415 372.13 825.929 372.76 L 825.929 372.76 L 825.929 372.76 Q 825.443 373.39 825.443 374.218 L 825.443 374.218 L 825.443 374.218 Q 825.443 375.37 826.487 376 L 826.487 376 L 826.487 376 Q 827.531 376.63 829.259 376.63 L 829.259 376.63 L 829.259 376.63 Z  M 846.035 371.23 L 846.035 371.23 Q 843.299 371.23 841.391 369.97 L 841.391 369.97 L 841.391 369.97 Q 839.483 368.71 838.529 366.586 L 838.529 366.586 L 838.529 366.586 Q 837.575 364.462 837.575 361.87 L 837.575 361.87 L 837.575 361.87 Q 837.575 359.206 838.475 357.1 L 838.475 357.1 L 838.475 357.1 Q 839.375 354.994 841.139 353.788 L 841.139 353.788 L 841.139 353.788 Q 842.903 352.582 845.351 352.582 L 845.351 352.582 L 845.351 352.582 Q 848.411 352.582 850.175 354.742 L 850.175 354.742 L 850.175 354.742 Q 851.939 356.902 851.939 360.538 L 851.939 360.538 L 851.939 360.538 Q 851.939 361.582 851.723 362.842 L 851.723 362.842 L 842.039 362.842 L 842.039 362.842 Q 842.255 365.29 843.479 366.496 L 843.479 366.496 L 843.479 366.496 Q 844.703 367.702 846.503 367.702 L 846.503 367.702 L 846.503 367.702 Q 848.951 367.702 851.147 366.262 L 851.147 366.262 L 851.255 370.042 L 851.255 370.042 Q 849.059 371.23 846.035 371.23 L 846.035 371.23 L 846.035 371.23 Z  M 842.075 359.818 L 847.583 359.818 L 847.583 359.818 Q 847.583 356.11 845.063 356.11 L 845.063 356.11 L 845.063 356.11 Q 842.579 356.11 842.075 359.818 L 842.075 359.818 L 842.075 359.818 Z  M 711.215 370.87 L 711.215 345.67 L 715.607 345.67 L 715.607 355.642 L 724.967 355.642 L 724.967 345.67 L 729.359 345.67 L 729.359 370.87 L 724.967 370.87 L 724.967 359.962 L 715.607 359.962 L 715.607 370.87 L 711.215 370.87 L 711.215 370.87 Z  M 736.955 371.23 L 736.955 371.23 Q 734.939 371.23 733.553 369.916 L 733.553 369.916 L 733.553 369.916 Q 732.167 368.602 732.167 366.226 L 732.167 366.226 L 732.167 366.226 Q 732.167 363.742 733.661 362.248 L 733.661 362.248 L 733.661 362.248 Q 735.155 360.754 737.117 360.106 L 737.117 360.106 L 737.117 360.106 Q 739.079 359.458 740.699 359.386 L 740.699 359.386 L 740.699 359.386 Q 740.699 357.802 740.123 357.118 L 740.123 357.118 L 740.123 357.118 Q 739.547 356.434 738.143 356.434 L 738.143 356.434 L 738.143 356.434 Q 737.063 356.434 736.055 356.776 L 736.055 356.776 L 736.055 356.776 Q 735.047 357.118 733.787 357.802 L 733.787 357.802 L 733.499 354.166 L 733.499 354.166 Q 736.379 352.582 739.295 352.582 L 739.295 352.582 L 739.295 352.582 Q 741.995 352.582 743.525 354.184 L 743.525 354.184 L 743.525 354.184 Q 745.055 355.786 745.055 359.242 L 745.055 359.242 L 745.055 364.678 L 745.055 364.678 Q 745.055 366.01 745.163 366.622 L 745.163 366.622 L 745.163 366.622 Q 745.271 367.234 745.505 367.396 L 745.505 367.396 L 745.505 367.396 Q 745.739 367.558 746.243 367.558 L 746.243 367.558 L 746.819 367.558 L 746.531 371.23 L 744.623 371.23 L 744.623 371.23 Q 743.615 371.23 742.697 370.654 L 742.697 370.654 L 742.697 370.654 Q 741.779 370.078 741.347 369.142 L 741.347 369.142 L 741.347 369.142 Q 740.375 370.186 739.367 370.708 L 739.367 370.708 L 739.367 370.708 Q 738.359 371.23 736.955 371.23 L 736.955 371.23 L 736.955 371.23 Z  M 738.431 367.81 L 738.431 367.81 Q 739.655 367.81 740.735 366.514 L 740.735 366.514 L 740.735 362.41 L 740.735 362.41 Q 739.007 362.626 737.855 363.436 L 737.855 363.436 L 737.855 363.436 Q 736.703 364.246 736.703 365.794 L 736.703 365.794 L 736.703 365.794 Q 736.703 366.838 737.171 367.324 L 737.171 367.324 L 737.171 367.324 Q 737.639 367.81 738.431 367.81 L 738.431 367.81 L 738.431 367.81 Z  M 752.579 371.23 L 752.579 371.23 Q 750.599 371.23 749.609 369.97 L 749.609 369.97 L 749.609 369.97 Q 748.619 368.71 748.619 366.514 L 748.619 366.514 L 748.619 343.87 L 752.939 343.87 L 752.939 365.038 L 752.939 365.038 Q 752.939 366.55 753.245 367.054 L 753.245 367.054 L 753.245 367.054 Q 753.551 367.558 754.559 367.558 L 754.559 367.558 L 754.199 371.23 L 752.579 371.23 L 752.579 371.23 Z  M 760.787 371.23 L 760.787 371.23 Q 758.807 371.23 757.817 369.97 L 757.817 369.97 L 757.817 369.97 Q 756.827 368.71 756.827 366.514 L 756.827 366.514 L 756.827 343.87 L 761.147 343.87 L 761.147 365.038 L 761.147 365.038 Q 761.147 366.55 761.453 367.054 L 761.453 367.054 L 761.453 367.054 Q 761.759 367.558 762.767 367.558 L 762.767 367.558 L 762.407 371.23 L 760.787 371.23 L 760.787 371.23 Z  M 619.379 371.374 L 619.379 371.374 Q 616.031 371.374 613.493 369.754 L 613.493 369.754 L 613.493 369.754 Q 610.955 368.134 609.551 365.164 L 609.551 365.164 L 609.551 365.164 Q 608.147 362.194 608.147 358.27 L 608.147 358.27 L 608.147 358.27 Q 608.147 354.31 609.623 351.34 L 609.623 351.34 L 609.623 351.34 Q 611.099 348.37 613.691 346.768 L 613.691 346.768 L 613.691 346.768 Q 616.283 345.166 619.559 345.166 L 619.559 345.166 L 619.559 345.166 Q 622.763 345.166 625.463 346.354 L 625.463 346.354 L 624.959 350.746 L 624.959 350.746 Q 623.555 350.17 622.493 349.882 L 622.493 349.882 L 622.493 349.882 Q 621.431 349.594 620.135 349.594 L 620.135 349.594 L 620.135 349.594 Q 616.751 349.594 614.861 351.898 L 614.861 351.898 L 614.861 351.898 Q 612.971 354.202 612.971 358.27 L 612.971 358.27 L 612.971 358.27 Q 612.971 362.41 614.717 364.678 L 614.717 364.678 L 614.717 364.678 Q 616.463 366.946 619.775 366.946 L 619.775 366.946 L 619.775 366.946 Q 620.891 366.946 621.791 366.622 L 621.791 366.622 L 621.791 362.266 L 618.911 362.266 L 618.911 358.234 L 626.183 358.234 L 626.183 369.538 L 626.183 369.538 Q 624.959 370.402 623.195 370.888 L 623.195 370.888 L 623.195 370.888 Q 621.431 371.374 619.379 371.374 L 619.379 371.374 L 619.379 371.374 Z  M 629.243 370.87 L 629.243 352.87 L 633.023 352.87 L 633.311 354.778 L 633.311 354.778 Q 634.319 353.662 635.201 353.122 L 635.201 353.122 L 635.201 353.122 Q 636.083 352.582 637.271 352.582 L 637.271 352.582 L 637.271 352.582 Q 637.775 352.582 638.207 352.69 L 638.207 352.69 L 637.883 357.046 L 637.883 357.046 Q 637.343 356.866 636.731 356.866 L 636.731 356.866 L 636.731 356.866 Q 635.867 356.866 635.183 357.262 L 635.183 357.262 L 635.183 357.262 Q 634.499 357.658 633.563 358.594 L 633.563 358.594 L 633.563 370.87 L 629.243 370.87 L 629.243 370.87 Z  M 639.539 350.134 L 639.539 345.67 L 643.859 345.67 L 643.859 350.134 L 639.539 350.134 L 639.539 350.134 Z  M 639.539 370.87 L 639.539 352.87 L 643.859 352.87 L 643.859 370.87 L 639.539 370.87 L 639.539 370.87 Z  M 648.035 370.87 L 648.035 356.542 L 646.019 356.542 L 646.343 352.87 L 648.035 352.87 L 648.035 349.054 L 648.035 349.054 Q 648.035 346.714 649.313 345.292 L 649.313 345.292 L 649.313 345.292 Q 650.591 343.87 653.111 343.87 L 653.111 343.87 L 653.111 343.87 Q 654.479 343.87 655.487 344.23 L 655.487 344.23 L 655.163 347.794 L 655.163 347.794 Q 654.695 347.614 654.155 347.614 L 654.155 347.614 L 654.155 347.614 Q 653.291 347.614 652.823 348.172 L 652.823 348.172 L 652.823 348.172 Q 652.355 348.73 652.355 349.702 L 652.355 349.702 L 652.355 352.87 L 655.451 352.87 L 655.451 356.542 L 652.355 356.542 L 652.355 370.87 L 648.035 370.87 L 648.035 370.87 Z  M 658.583 370.87 L 658.583 356.542 L 656.567 356.542 L 656.891 352.87 L 658.583 352.87 L 658.583 349.054 L 658.583 349.054 Q 658.583 346.714 659.861 345.292 L 659.861 345.292 L 659.861 345.292 Q 661.139 343.87 663.659 343.87 L 663.659 343.87 L 663.659 343.87 Q 665.027 343.87 666.035 344.23 L 666.035 344.23 L 665.711 347.794 L 665.711 347.794 Q 665.243 347.614 664.703 347.614 L 664.703 347.614 L 664.703 347.614 Q 663.839 347.614 663.371 348.172 L 663.371 348.172 L 663.371 348.172 Q 662.903 348.73 662.903 349.702 L 662.903 349.702 L 662.903 352.87 L 665.999 352.87 L 665.999 356.542 L 662.903 356.542 L 662.903 370.87 L 658.583 370.87 L 658.583 370.87 Z  M 668.123 350.134 L 668.123 345.67 L 672.443 345.67 L 672.443 350.134 L 668.123 350.134 L 668.123 350.134 Z  M 668.123 370.87 L 668.123 352.87 L 672.443 352.87 L 672.443 370.87 L 668.123 370.87 L 668.123 370.87 Z  M 680.867 371.23 L 680.867 371.23 Q 678.815 371.23 677.717 370.042 L 677.717 370.042 L 677.717 370.042 Q 676.619 368.854 676.619 366.514 L 676.619 366.514 L 676.619 356.542 L 674.603 356.542 L 674.999 352.87 L 676.619 352.87 L 676.619 348.91 L 680.939 348.442 L 680.939 352.87 L 684.071 352.87 L 684.071 356.542 L 680.939 356.542 L 680.939 365.398 L 680.939 365.398 Q 680.939 366.514 681.389 367.036 L 681.389 367.036 L 681.389 367.036 Q 681.839 367.558 682.811 367.558 L 682.811 367.558 L 684.107 367.558 L 683.711 371.23 L 680.867 371.23 L 680.867 371.23 Z  M 694.691 352.582 L 694.691 352.582 Q 697.391 352.582 698.813 354.364 L 698.813 354.364 L 698.813 354.364 Q 700.235 356.146 700.235 359.17 L 700.235 359.17 L 700.235 370.87 L 695.915 370.87 L 695.915 359.746 L 695.915 359.746 Q 695.915 356.11 693.467 356.11 L 693.467 356.11 L 693.467 356.11 Q 691.775 356.11 690.695 357.658 L 690.695 357.658 L 690.695 370.87 L 686.375 370.87 L 686.375 343.87 L 690.695 343.87 L 690.695 353.914 L 690.695 353.914 Q 692.315 352.582 694.691 352.582 L 694.691 352.582 L 694.691 352.582 Z  M 520.127 377.062 L 519.803 373.174 L 519.803 373.174 Q 520.991 373.174 521.513 372.652 L 521.513 372.652 L 521.513 372.652 Q 522.035 372.13 522.035 370.906 L 522.035 370.906 L 522.035 345.67 L 526.427 345.67 L 526.427 371.734 L 526.427 371.734 Q 526.427 374.398 524.951 375.73 L 524.951 375.73 L 524.951 375.73 Q 523.475 377.062 520.883 377.062 L 520.883 377.062 L 520.127 377.062 L 520.127 377.062 Z  M 533.879 371.23 L 533.879 371.23 Q 531.863 371.23 530.477 369.916 L 530.477 369.916 L 530.477 369.916 Q 529.091 368.602 529.091 366.226 L 529.091 366.226 L 529.091 366.226 Q 529.091 363.742 530.585 362.248 L 530.585 362.248 L 530.585 362.248 Q 532.079 360.754 534.041 360.106 L 534.041 360.106 L 534.041 360.106 Q 536.003 359.458 537.623 359.386 L 537.623 359.386 L 537.623 359.386 Q 537.623 357.802 537.047 357.118 L 537.047 357.118 L 537.047 357.118 Q 536.471 356.434 535.067 356.434 L 535.067 356.434 L 535.067 356.434 Q 533.987 356.434 532.979 356.776 L 532.979 356.776 L 532.979 356.776 Q 531.971 357.118 530.711 357.802 L 530.711 357.802 L 530.423 354.166 L 530.423 354.166 Q 533.303 352.582 536.219 352.582 L 536.219 352.582 L 536.219 352.582 Q 538.919 352.582 540.449 354.184 L 540.449 354.184 L 540.449 354.184 Q 541.979 355.786 541.979 359.242 L 541.979 359.242 L 541.979 364.678 L 541.979 364.678 Q 541.979 366.01 542.087 366.622 L 542.087 366.622 L 542.087 366.622 Q 542.195 367.234 542.429 367.396 L 542.429 367.396 L 542.429 367.396 Q 542.663 367.558 543.167 367.558 L 543.167 367.558 L 543.743 367.558 L 543.455 371.23 L 541.547 371.23 L 541.547 371.23 Q 540.539 371.23 539.621 370.654 L 539.621 370.654 L 539.621 370.654 Q 538.703 370.078 538.271 369.142 L 538.271 369.142 L 538.271 369.142 Q 537.299 370.186 536.291 370.708 L 536.291 370.708 L 536.291 370.708 Q 535.283 371.23 533.879 371.23 L 533.879 371.23 L 533.879 371.23 Z  M 535.355 367.81 L 535.355 367.81 Q 536.579 367.81 537.659 366.514 L 537.659 366.514 L 537.659 362.41 L 537.659 362.41 Q 535.931 362.626 534.779 363.436 L 534.779 363.436 L 534.779 363.436 Q 533.627 364.246 533.627 365.794 L 533.627 365.794 L 533.627 365.794 Q 533.627 366.838 534.095 367.324 L 534.095 367.324 L 534.095 367.324 Q 534.563 367.81 535.355 367.81 L 535.355 367.81 L 535.355 367.81 Z  M 563.183 352.582 L 563.183 352.582 Q 566.063 352.582 567.575 354.364 L 567.575 354.364 L 567.575 354.364 Q 569.087 356.146 569.087 359.17 L 569.087 359.17 L 569.087 370.87 L 564.767 370.87 L 564.767 359.746 L 564.767 359.746 Q 564.767 357.982 564.191 357.046 L 564.191 357.046 L 564.191 357.046 Q 563.615 356.11 562.283 356.11 L 562.283 356.11 L 562.283 356.11 Q 560.951 356.11 560.249 356.884 L 560.249 356.884 L 560.249 356.884 Q 559.547 357.658 559.547 359.17 L 559.547 359.17 L 559.547 370.87 L 555.227 370.87 L 555.227 359.746 L 555.227 359.746 Q 555.227 356.11 552.779 356.11 L 552.779 356.11 L 552.779 356.11 Q 551.087 356.11 550.007 357.658 L 550.007 357.658 L 550.007 370.87 L 545.687 370.87 L 545.687 352.87 L 549.359 352.87 L 549.539 354.31 L 549.539 354.31 Q 551.195 352.582 553.751 352.582 L 553.751 352.582 L 553.751 352.582 Q 555.227 352.582 556.379 353.194 L 556.379 353.194 L 556.379 353.194 Q 557.531 353.806 558.179 354.922 L 558.179 354.922 L 558.179 354.922 Q 559.043 353.806 560.321 353.194 L 560.321 353.194 L 560.321 353.194 Q 561.599 352.582 563.183 352.582 L 563.183 352.582 L 563.183 352.582 Z  M 580.031 371.23 L 580.031 371.23 Q 577.295 371.23 575.387 369.97 L 575.387 369.97 L 575.387 369.97 Q 573.479 368.71 572.525 366.586 L 572.525 366.586 L 572.525 366.586 Q 571.571 364.462 571.571 361.87 L 571.571 361.87 L 571.571 361.87 Q 571.571 359.206 572.471 357.1 L 572.471 357.1 L 572.471 357.1 Q 573.371 354.994 575.135 353.788 L 575.135 353.788 L 575.135 353.788 Q 576.899 352.582 579.347 352.582 L 579.347 352.582 L 579.347 352.582 Q 582.407 352.582 584.171 354.742 L 584.171 354.742 L 584.171 354.742 Q 585.935 356.902 585.935 360.538 L 585.935 360.538 L 585.935 360.538 Q 585.935 361.582 585.719 362.842 L 585.719 362.842 L 576.035 362.842 L 576.035 362.842 Q 576.251 365.29 577.475 366.496 L 577.475 366.496 L 577.475 366.496 Q 578.699 367.702 580.499 367.702 L 580.499 367.702 L 580.499 367.702 Q 582.947 367.702 585.143 366.262 L 585.143 366.262 L 585.251 370.042 L 585.251 370.042 Q 583.055 371.23 580.031 371.23 L 580.031 371.23 L 580.031 371.23 Z  M 576.071 359.818 L 581.579 359.818 L 581.579 359.818 Q 581.579 356.11 579.059 356.11 L 579.059 356.11 L 579.059 356.11 Q 576.575 356.11 576.071 359.818 L 576.071 359.818 L 576.071 359.818 Z  M 593.027 371.23 L 593.027 371.23 Q 591.551 371.23 590.345 370.924 L 590.345 370.924 L 590.345 370.924 Q 589.139 370.618 587.879 369.97 L 587.879 369.97 L 588.275 366.154 L 588.275 366.154 Q 590.795 367.882 592.703 367.882 L 592.703 367.882 L 592.703 367.882 Q 593.927 367.882 594.575 367.414 L 594.575 367.414 L 594.575 367.414 Q 595.223 366.946 595.223 366.118 L 595.223 366.118 L 595.223 366.118 Q 595.223 365.254 594.629 364.696 L 594.629 364.696 L 594.629 364.696 Q 594.035 364.138 592.307 363.31 L 592.307 363.31 L 592.307 363.31 Q 590.003 362.194 588.977 361.024 L 588.977 361.024 L 588.977 361.024 Q 587.951 359.854 587.951 357.802 L 587.951 357.802 L 587.951 357.802 Q 587.951 355.462 589.607 354.022 L 589.607 354.022 L 589.607 354.022 Q 591.263 352.582 594.071 352.582 L 594.071 352.582 L 594.071 352.582 Q 596.591 352.582 598.787 353.914 L 598.787 353.914 L 598.391 357.622 L 598.391 357.622 Q 597.347 356.722 596.393 356.254 L 596.393 356.254 L 596.393 356.254 Q 595.439 355.786 594.359 355.786 L 594.359 355.786 L 594.359 355.786 Q 593.315 355.786 592.685 356.236 L 592.685 356.236 L 592.685 356.236 Q 592.055 356.686 592.055 357.514 L 592.055 357.514 L 592.055 357.514 Q 592.055 358.342 592.721 358.864 L 592.721 358.864 L 592.721 358.864 Q 593.387 359.386 595.403 360.43 L 595.403 360.43 L 595.403 360.43 Q 597.419 361.474 598.373 362.716 L 598.373 362.716 L 598.373 362.716 Q 599.327 363.958 599.327 365.938 L 599.327 365.938 L 599.327 365.938 Q 599.327 368.386 597.617 369.808 L 597.617 369.808 L 597.617 369.808 Q 595.907 371.23 593.027 371.23 L 593.027 371.23 L 593.027 371.23 Z  M 482.759 370.87 L 482.759 345.67 L 490.895 345.67 L 490.895 345.67 Q 493.991 345.67 496.403 347.182 L 496.403 347.182 L 496.403 347.182 Q 498.815 348.694 500.183 351.538 L 500.183 351.538 L 500.183 351.538 Q 501.551 354.382 501.551 358.27 L 501.551 358.27 L 501.551 358.27 Q 501.551 362.158 500.183 365.002 L 500.183 365.002 L 500.183 365.002 Q 498.815 367.846 496.403 369.358 L 496.403 369.358 L 496.403 369.358 Q 493.991 370.87 490.895 370.87 L 490.895 370.87 L 482.759 370.87 L 482.759 370.87 Z  M 487.151 366.838 L 490.895 366.838 L 490.895 366.838 Q 493.775 366.838 495.251 364.57 L 495.251 364.57 L 495.251 364.57 Q 496.727 362.302 496.727 358.27 L 496.727 358.27 L 496.727 358.27 Q 496.727 354.238 495.251 351.97 L 495.251 351.97 L 495.251 351.97 Q 493.775 349.702 490.895 349.702 L 490.895 349.702 L 487.151 349.702 L 487.151 366.838 L 487.151 366.838 Z  M 504.287 370.87 L 504.287 352.87 L 508.067 352.87 L 508.355 354.778 L 508.355 354.778 Q 509.363 353.662 510.245 353.122 L 510.245 353.122 L 510.245 353.122 Q 511.127 352.582 512.315 352.582 L 512.315 352.582 L 512.315 352.582 Q 512.819 352.582 513.251 352.69 L 513.251 352.69 L 512.927 357.046 L 512.927 357.046 Q 512.387 356.866 511.775 356.866 L 511.775 356.866 L 511.775 356.866 Q 510.911 356.866 510.227 357.262 L 510.227 357.262 L 510.227 357.262 Q 509.543 357.658 508.607 358.594 L 508.607 358.594 L 508.607 370.87 L 504.287 370.87 L 504.287 370.87 Z " fill-rule="evenodd" fill="rgb(68,68,68)"/></svg>