<?xml version="1.0" standalone="no"?><!-- Generator: Gravit.io --><svg xmlns="http://www.w3.org/2000/svg" xmlns:xlink="http://www.w3.org/1999/xlink" style="isolation:isolate" viewBox="0 0 100 100" width="100" height="100"><defs><clipPath id="_clipPath_qgPCGrYcrK2GruYjnBaoXAj02CqBSiY3"><rect width="100" height="100"/></clipPath></defs><g clip-path="url(#_clipPath_qgPCGrYcrK2GruYjnBaoXAj02CqBSiY3)"><linearGradient id="_lgradient_4" x1="1" y1="0.5" x2="0.000017659420417759364" y2="0.4999999999999999" gradientTransform="matrix(56.627,0,0,37.751,48.429,409.786)" gradientUnits="userSpaceOnUse"><stop offset="1.3043478260869565%" stop-opacity="1" style="stop-color:rgb(75,174,231)"/><stop offset="97.82608695652173%" stop-opacity="1" style="stop-color:rgb(35,94,164)"/></linearGradient><path d=" M 86.119 438.099 L 105.056 419.162 L 95.679 409.786 L 76.742 428.723 L 57.805 409.786 L 48.429 419.162 L 67.366 438.099 L 67.305 438.161 L 76.681 447.537 L 76.742 447.475 L 76.804 447.537 L 86.18 438.161 L 86.119 438.099 Z " fill-rule="evenodd" fill="url(#_lgradient_4)"/><linearGradient id="_lgradient_5" x1="0" y1="0.5" x2="0.9999823405795824" y2="0.5" gradientTransform="matrix(56.627,0,0,37.751,48.429,390.559)" gradientUnits="userSpaceOnUse"><stop offset="2.1739130434782608%" stop-opacity="1" style="stop-color:rgb(75,174,231)"/><stop offset="97.82608695652173%" stop-opacity="1" style="stop-color:rgb(35,94,164)"/></linearGradient><path d=" M 67.366 399.997 L 48.429 418.934 L 57.805 428.31 L 76.742 409.373 L 95.679 428.31 L 105.056 418.934 L 86.119 399.997 L 86.18 399.935 L 76.804 390.559 L 76.742 390.621 L 76.681 390.559 L 67.305 399.935 L 67.366 399.997 Z " fill-rule="evenodd" fill="url(#_lgradient_5)"/><g><g><g><linearGradient id="_lgradient_6" x1="1" y1="0.5" x2="0.000017659420417759364" y2="0.4999999999999999" gradientTransform="matrix(96,0,0,63.999,2,34.304)" gradientUnits="userSpaceOnUse"><stop offset="1.3043478260869565%" stop-opacity="1" style="stop-color:rgb(75,174,231)"/><stop offset="97.82608695652173%" stop-opacity="1" style="stop-color:rgb(35,94,164)"/></linearGradient><path d=" M 65.896 82.303 L 98 50.199 L 82.103 34.304 L 49.999 66.408 L 17.895 34.304 L 2 50.199 L 34.104 82.303 L 34.001 82.409 L 49.896 98.304 L 49.999 98.199 L 50.104 98.304 L 65.999 82.409 L 65.896 82.303 Z " fill-rule="evenodd" fill="url(#_lgradient_6)"/><g><linearGradient id="_lgradient_7" x1="0" y1="0.5" x2="0.9999823405795824" y2="0.5" gradientTransform="matrix(96,0,0,63.999,2,1.709)" gradientUnits="userSpaceOnUse"><stop offset="2.1739130434782608%" stop-opacity="1" style="stop-color:rgb(75,174,231)"/><stop offset="97.82608695652173%" stop-opacity="1" style="stop-color:rgb(35,94,164)"/></linearGradient><path d=" M 34.104 17.709 L 2 49.813 L 17.895 65.708 L 49.999 33.604 L 82.103 65.708 L 98 49.813 L 65.896 17.709 L 65.999 17.604 L 50.104 1.709 L 49.999 1.814 L 49.896 1.709 L 34.001 17.604 L 34.104 17.709 Z " fill-rule="evenodd" fill="url(#_lgradient_7)"/></g></g></g></g></g></svg>