<?xml version="1.0" standalone="no"?><!-- Generator: Gravit.io --><svg xmlns="http://www.w3.org/2000/svg" xmlns:xlink="http://www.w3.org/1999/xlink" style="isolation:isolate" viewBox="48.429 390.559 439.323 56.978" width="439.323" height="56.978"><g><g><linearGradient id="_lgradient_4" x1="0" y1="0.5" x2="1" y2="0.5" gradientTransform="matrix(-56.626,0,0,-37.751,105.056,447.537)" gradientUnits="userSpaceOnUse"><stop offset="1.3043478260869565%" stop-opacity="1" style="stop-color:rgb(75,174,231)"/><stop offset="97.82608695652173%" stop-opacity="1" style="stop-color:rgb(35,94,164)"/></linearGradient><path d=" M 86.119 438.099 L 105.056 419.162 L 95.679 409.786 L 76.742 428.723 L 57.805 409.786 L 48.429 419.162 L 67.366 438.099 L 67.305 438.161 L 76.681 447.537 L 76.742 447.475 L 76.804 447.537 L 86.18 438.161 L 86.119 438.099 Z " fill-rule="evenodd" fill="url(#_lgradient_4)"/><linearGradient id="_lgradient_5" x1="0" y1="0.5" x2="1" y2="0.5" gradientTransform="matrix(56.626,0,0,37.751,48.429,390.559)" gradientUnits="userSpaceOnUse"><stop offset="2.1739130434782608%" stop-opacity="1" style="stop-color:rgb(75,174,231)"/><stop offset="97.82608695652173%" stop-opacity="1" style="stop-color:rgb(35,94,164)"/></linearGradient><path d=" M 67.366 399.997 L 48.429 418.934 L 57.805 428.31 L 76.742 409.373 L 95.679 428.31 L 105.056 418.934 L 86.119 399.997 L 86.18 399.935 L 76.804 390.559 L 76.742 390.621 L 76.681 390.559 L 67.305 399.935 L 67.366 399.997 Z " fill-rule="evenodd" fill="url(#_lgradient_5)"/></g><path d=" M 408.516 431.918 L 408.516 406.718 L 412.908 406.718 L 412.908 427.886 L 421.404 427.886 L 421.404 431.918 L 408.516 431.918 L 408.516 431.918 Z  M 430.44 432.278 L 430.44 432.278 Q 427.992 432.278 426.192 431.018 L 426.192 431.018 L 426.192 431.018 Q 424.392 429.758 423.438 427.634 L 423.438 427.634 L 423.438 427.634 Q 422.484 425.51 422.484 422.954 L 422.484 422.954 L 422.484 422.954 Q 422.484 420.398 423.438 418.274 L 423.438 418.274 L 423.438 418.274 Q 424.392 416.15 426.192 414.89 L 426.192 414.89 L 426.192 414.89 Q 427.992 413.63 430.44 413.63 L 430.44 413.63 L 430.44 413.63 Q 432.888 413.63 434.706 414.89 L 434.706 414.89 L 434.706 414.89 Q 436.524 416.15 437.478 418.274 L 437.478 418.274 L 437.478 418.274 Q 438.432 420.398 438.432 422.954 L 438.432 422.954 L 438.432 422.954 Q 438.432 425.51 437.478 427.634 L 437.478 427.634 L 437.478 427.634 Q 436.524 429.758 434.706 431.018 L 434.706 431.018 L 434.706 431.018 Q 432.888 432.278 430.44 432.278 L 430.44 432.278 L 430.44 432.278 Z  M 430.44 428.75 L 430.44 428.75 Q 432.132 428.75 433.086 427.166 L 433.086 427.166 L 433.086 427.166 Q 434.04 425.582 434.04 422.954 L 434.04 422.954 L 434.04 422.954 Q 434.04 420.326 433.086 418.742 L 433.086 418.742 L 433.086 418.742 Q 432.132 417.158 430.44 417.158 L 430.44 417.158 L 430.44 417.158 Q 428.784 417.158 427.83 418.76 L 427.83 418.76 L 427.83 418.76 Q 426.876 420.362 426.876 422.954 L 426.876 422.954 L 426.876 422.954 Q 426.876 425.546 427.83 427.148 L 427.83 427.148 L 427.83 427.148 Q 428.784 428.75 430.44 428.75 L 430.44 428.75 L 430.44 428.75 Z  M 450.924 404.918 L 455.244 404.918 L 455.244 431.918 L 451.176 431.918 L 451.104 430.766 L 451.104 430.766 Q 450.24 431.522 449.25 431.9 L 449.25 431.9 L 449.25 431.9 Q 448.26 432.278 446.964 432.278 L 446.964 432.278 L 446.964 432.278 Q 444.732 432.278 443.112 431.018 L 443.112 431.018 L 443.112 431.018 Q 441.492 429.758 440.664 427.634 L 440.664 427.634 L 440.664 427.634 Q 439.836 425.51 439.836 422.954 L 439.836 422.954 L 439.836 422.954 Q 439.836 420.398 440.664 418.274 L 440.664 418.274 L 440.664 418.274 Q 441.492 416.15 443.112 414.89 L 443.112 414.89 L 443.112 414.89 Q 444.732 413.63 446.964 413.63 L 446.964 413.63 L 446.964 413.63 Q 449.304 413.63 450.924 415.034 L 450.924 415.034 L 450.924 404.918 L 450.924 404.918 Z  M 447.612 428.75 L 447.612 428.75 Q 449.376 428.75 450.258 427.184 L 450.258 427.184 L 450.258 427.184 Q 451.14 425.618 451.14 422.954 L 451.14 422.954 L 451.14 422.954 Q 451.14 420.29 450.258 418.724 L 450.258 418.724 L 450.258 418.724 Q 449.376 417.158 447.612 417.158 L 447.612 417.158 L 447.612 417.158 Q 446.028 417.158 445.128 418.742 L 445.128 418.742 L 445.128 418.742 Q 444.228 420.326 444.228 422.954 L 444.228 422.954 L 444.228 422.954 Q 444.228 425.582 445.128 427.166 L 445.128 427.166 L 445.128 427.166 Q 446.028 428.75 447.612 428.75 L 447.612 428.75 L 447.612 428.75 Z  M 464.964 440.918 L 464.964 440.918 Q 461.724 440.918 459.762 439.586 L 459.762 439.586 L 459.762 439.586 Q 457.8 438.254 457.8 435.878 L 457.8 435.878 L 457.8 435.878 Q 457.8 434.546 458.484 433.538 L 458.484 433.538 L 458.484 433.538 Q 459.168 432.53 460.5 431.738 L 460.5 431.738 L 460.5 431.738 Q 458.952 430.838 458.952 429.254 L 458.952 429.254 L 458.952 429.254 Q 458.952 427.706 460.644 426.698 L 460.644 426.698 L 460.644 426.698 Q 459.348 425.726 458.628 424.16 L 458.628 424.16 L 458.628 424.16 Q 457.908 422.594 457.908 420.722 L 457.908 420.722 L 457.908 420.722 Q 457.908 418.742 458.682 417.122 L 458.682 417.122 L 458.682 417.122 Q 459.456 415.502 460.932 414.566 L 460.932 414.566 L 460.932 414.566 Q 462.408 413.63 464.388 413.63 L 464.388 413.63 L 464.388 413.63 Q 466.728 413.63 468.348 414.926 L 468.348 414.926 L 468.348 414.926 Q 469.824 413.63 471.372 413.63 L 471.372 413.63 L 471.372 413.63 Q 471.84 413.63 472.272 413.702 L 472.272 413.702 L 471.948 416.474 L 471.948 416.474 Q 471.588 416.402 471.228 416.402 L 471.228 416.402 L 471.228 416.402 Q 470.472 416.402 469.86 416.69 L 469.86 416.69 L 469.86 416.69 Q 470.868 418.418 470.868 420.722 L 470.868 420.722 L 470.868 420.722 Q 470.868 422.702 470.094 424.322 L 470.094 424.322 L 470.094 424.322 Q 469.32 425.942 467.844 426.896 L 467.844 426.896 L 467.844 426.896 Q 466.368 427.85 464.388 427.85 L 464.388 427.85 L 464.388 427.85 Q 463.596 427.85 463.02 427.706 L 463.02 427.706 L 463.02 427.706 Q 462.696 427.958 462.696 428.318 L 462.696 428.318 L 462.696 428.318 Q 462.696 428.678 462.948 428.876 L 462.948 428.876 L 462.948 428.876 Q 463.2 429.074 463.812 429.218 L 463.812 429.218 L 467.52 430.082 L 467.52 430.082 Q 470.148 430.694 471.336 431.9 L 471.336 431.9 L 471.336 431.9 Q 472.524 433.106 472.524 435.266 L 472.524 435.266 L 472.524 435.266 Q 472.524 436.958 471.57 438.236 L 471.57 438.236 L 471.57 438.236 Q 470.616 439.514 468.888 440.216 L 468.888 440.216 L 468.888 440.216 Q 467.16 440.918 464.964 440.918 L 464.964 440.918 L 464.964 440.918 Z  M 464.388 424.61 L 464.388 424.61 Q 465.576 424.61 466.242 423.548 L 466.242 423.548 L 466.242 423.548 Q 466.908 422.486 466.908 420.722 L 466.908 420.722 L 466.908 420.722 Q 466.908 418.994 466.242 417.932 L 466.242 417.932 L 466.242 417.932 Q 465.576 416.87 464.388 416.87 L 464.388 416.87 L 464.388 416.87 Q 463.164 416.87 462.516 417.932 L 462.516 417.932 L 462.516 417.932 Q 461.868 418.994 461.868 420.722 L 461.868 420.722 L 461.868 420.722 Q 461.868 422.486 462.516 423.548 L 462.516 423.548 L 462.516 423.548 Q 463.164 424.61 464.388 424.61 L 464.388 424.61 L 464.388 424.61 Z  M 465.072 437.678 L 465.072 437.678 Q 466.728 437.678 467.754 437.12 L 467.754 437.12 L 467.754 437.12 Q 468.78 436.562 468.78 435.518 L 468.78 435.518 L 468.78 435.518 Q 468.78 434.654 468.222 434.168 L 468.222 434.168 L 468.222 434.168 Q 467.664 433.682 466.296 433.358 L 466.296 433.358 L 463.2 432.602 L 463.2 432.602 Q 462.228 433.178 461.742 433.808 L 461.742 433.808 L 461.742 433.808 Q 461.256 434.438 461.256 435.266 L 461.256 435.266 L 461.256 435.266 Q 461.256 436.418 462.3 437.048 L 462.3 437.048 L 462.3 437.048 Q 463.344 437.678 465.072 437.678 L 465.072 437.678 L 465.072 437.678 Z  M 481.848 432.278 L 481.848 432.278 Q 479.112 432.278 477.204 431.018 L 477.204 431.018 L 477.204 431.018 Q 475.296 429.758 474.342 427.634 L 474.342 427.634 L 474.342 427.634 Q 473.388 425.51 473.388 422.918 L 473.388 422.918 L 473.388 422.918 Q 473.388 420.254 474.288 418.148 L 474.288 418.148 L 474.288 418.148 Q 475.188 416.042 476.952 414.836 L 476.952 414.836 L 476.952 414.836 Q 478.716 413.63 481.164 413.63 L 481.164 413.63 L 481.164 413.63 Q 484.224 413.63 485.988 415.79 L 485.988 415.79 L 485.988 415.79 Q 487.752 417.95 487.752 421.586 L 487.752 421.586 L 487.752 421.586 Q 487.752 422.63 487.536 423.89 L 487.536 423.89 L 477.852 423.89 L 477.852 423.89 Q 478.068 426.338 479.292 427.544 L 479.292 427.544 L 479.292 427.544 Q 480.516 428.75 482.316 428.75 L 482.316 428.75 L 482.316 428.75 Q 484.764 428.75 486.96 427.31 L 486.96 427.31 L 487.068 431.09 L 487.068 431.09 Q 484.872 432.278 481.848 432.278 L 481.848 432.278 L 481.848 432.278 Z  M 477.888 420.866 L 483.396 420.866 L 483.396 420.866 Q 483.396 417.158 480.876 417.158 L 480.876 417.158 L 480.876 417.158 Q 478.392 417.158 477.888 420.866 L 477.888 420.866 L 477.888 420.866 Z  M 347.028 431.918 L 347.028 406.718 L 351.42 406.718 L 351.42 416.69 L 360.78 416.69 L 360.78 406.718 L 365.172 406.718 L 365.172 431.918 L 360.78 431.918 L 360.78 421.01 L 351.42 421.01 L 351.42 431.918 L 347.028 431.918 L 347.028 431.918 Z  M 372.768 432.278 L 372.768 432.278 Q 370.752 432.278 369.366 430.964 L 369.366 430.964 L 369.366 430.964 Q 367.98 429.65 367.98 427.274 L 367.98 427.274 L 367.98 427.274 Q 367.98 424.79 369.474 423.296 L 369.474 423.296 L 369.474 423.296 Q 370.968 421.802 372.93 421.154 L 372.93 421.154 L 372.93 421.154 Q 374.892 420.506 376.512 420.434 L 376.512 420.434 L 376.512 420.434 Q 376.512 418.85 375.936 418.166 L 375.936 418.166 L 375.936 418.166 Q 375.36 417.482 373.956 417.482 L 373.956 417.482 L 373.956 417.482 Q 372.876 417.482 371.868 417.824 L 371.868 417.824 L 371.868 417.824 Q 370.86 418.166 369.6 418.85 L 369.6 418.85 L 369.312 415.214 L 369.312 415.214 Q 372.192 413.63 375.108 413.63 L 375.108 413.63 L 375.108 413.63 Q 377.808 413.63 379.338 415.232 L 379.338 415.232 L 379.338 415.232 Q 380.868 416.834 380.868 420.29 L 380.868 420.29 L 380.868 425.726 L 380.868 425.726 Q 380.868 427.058 380.976 427.67 L 380.976 427.67 L 380.976 427.67 Q 381.084 428.282 381.318 428.444 L 381.318 428.444 L 381.318 428.444 Q 381.552 428.606 382.056 428.606 L 382.056 428.606 L 382.632 428.606 L 382.344 432.278 L 380.436 432.278 L 380.436 432.278 Q 379.428 432.278 378.51 431.702 L 378.51 431.702 L 378.51 431.702 Q 377.592 431.126 377.16 430.19 L 377.16 430.19 L 377.16 430.19 Q 376.188 431.234 375.18 431.756 L 375.18 431.756 L 375.18 431.756 Q 374.172 432.278 372.768 432.278 L 372.768 432.278 L 372.768 432.278 Z  M 374.244 428.858 L 374.244 428.858 Q 375.468 428.858 376.548 427.562 L 376.548 427.562 L 376.548 423.458 L 376.548 423.458 Q 374.82 423.674 373.668 424.484 L 373.668 424.484 L 373.668 424.484 Q 372.516 425.294 372.516 426.842 L 372.516 426.842 L 372.516 426.842 Q 372.516 427.886 372.984 428.372 L 372.984 428.372 L 372.984 428.372 Q 373.452 428.858 374.244 428.858 L 374.244 428.858 L 374.244 428.858 Z  M 388.392 432.278 L 388.392 432.278 Q 386.412 432.278 385.422 431.018 L 385.422 431.018 L 385.422 431.018 Q 384.432 429.758 384.432 427.562 L 384.432 427.562 L 384.432 404.918 L 388.752 404.918 L 388.752 426.086 L 388.752 426.086 Q 388.752 427.598 389.058 428.102 L 389.058 428.102 L 389.058 428.102 Q 389.364 428.606 390.372 428.606 L 390.372 428.606 L 390.012 432.278 L 388.392 432.278 L 388.392 432.278 Z  M 396.6 432.278 L 396.6 432.278 Q 394.62 432.278 393.63 431.018 L 393.63 431.018 L 393.63 431.018 Q 392.64 429.758 392.64 427.562 L 392.64 427.562 L 392.64 404.918 L 396.96 404.918 L 396.96 426.086 L 396.96 426.086 Q 396.96 427.598 397.266 428.102 L 397.266 428.102 L 397.266 428.102 Q 397.572 428.606 398.58 428.606 L 398.58 428.606 L 398.22 432.278 L 396.6 432.278 L 396.6 432.278 Z  M 255.192 432.422 L 255.192 432.422 Q 251.844 432.422 249.306 430.802 L 249.306 430.802 L 249.306 430.802 Q 246.768 429.182 245.364 426.212 L 245.364 426.212 L 245.364 426.212 Q 243.96 423.242 243.96 419.318 L 243.96 419.318 L 243.96 419.318 Q 243.96 415.358 245.436 412.388 L 245.436 412.388 L 245.436 412.388 Q 246.912 409.418 249.504 407.816 L 249.504 407.816 L 249.504 407.816 Q 252.096 406.214 255.372 406.214 L 255.372 406.214 L 255.372 406.214 Q 258.576 406.214 261.276 407.402 L 261.276 407.402 L 260.772 411.794 L 260.772 411.794 Q 259.368 411.218 258.306 410.93 L 258.306 410.93 L 258.306 410.93 Q 257.244 410.642 255.948 410.642 L 255.948 410.642 L 255.948 410.642 Q 252.564 410.642 250.674 412.946 L 250.674 412.946 L 250.674 412.946 Q 248.784 415.25 248.784 419.318 L 248.784 419.318 L 248.784 419.318 Q 248.784 423.458 250.53 425.726 L 250.53 425.726 L 250.53 425.726 Q 252.276 427.994 255.588 427.994 L 255.588 427.994 L 255.588 427.994 Q 256.704 427.994 257.604 427.67 L 257.604 427.67 L 257.604 423.314 L 254.724 423.314 L 254.724 419.282 L 261.996 419.282 L 261.996 430.586 L 261.996 430.586 Q 260.772 431.45 259.008 431.936 L 259.008 431.936 L 259.008 431.936 Q 257.244 432.422 255.192 432.422 L 255.192 432.422 L 255.192 432.422 Z  M 265.056 431.918 L 265.056 413.918 L 268.836 413.918 L 269.124 415.826 L 269.124 415.826 Q 270.132 414.71 271.014 414.17 L 271.014 414.17 L 271.014 414.17 Q 271.896 413.63 273.084 413.63 L 273.084 413.63 L 273.084 413.63 Q 273.588 413.63 274.02 413.738 L 274.02 413.738 L 273.696 418.094 L 273.696 418.094 Q 273.156 417.914 272.544 417.914 L 272.544 417.914 L 272.544 417.914 Q 271.68 417.914 270.996 418.31 L 270.996 418.31 L 270.996 418.31 Q 270.312 418.706 269.376 419.642 L 269.376 419.642 L 269.376 431.918 L 265.056 431.918 L 265.056 431.918 Z  M 275.352 411.182 L 275.352 406.718 L 279.672 406.718 L 279.672 411.182 L 275.352 411.182 L 275.352 411.182 Z  M 275.352 431.918 L 275.352 413.918 L 279.672 413.918 L 279.672 431.918 L 275.352 431.918 L 275.352 431.918 Z  M 283.848 431.918 L 283.848 417.59 L 281.832 417.59 L 282.156 413.918 L 283.848 413.918 L 283.848 410.102 L 283.848 410.102 Q 283.848 407.762 285.126 406.34 L 285.126 406.34 L 285.126 406.34 Q 286.404 404.918 288.924 404.918 L 288.924 404.918 L 288.924 404.918 Q 290.292 404.918 291.3 405.278 L 291.3 405.278 L 290.976 408.842 L 290.976 408.842 Q 290.508 408.662 289.968 408.662 L 289.968 408.662 L 289.968 408.662 Q 289.104 408.662 288.636 409.22 L 288.636 409.22 L 288.636 409.22 Q 288.168 409.778 288.168 410.75 L 288.168 410.75 L 288.168 413.918 L 291.264 413.918 L 291.264 417.59 L 288.168 417.59 L 288.168 431.918 L 283.848 431.918 L 283.848 431.918 Z  M 294.396 431.918 L 294.396 417.59 L 292.38 417.59 L 292.704 413.918 L 294.396 413.918 L 294.396 410.102 L 294.396 410.102 Q 294.396 407.762 295.674 406.34 L 295.674 406.34 L 295.674 406.34 Q 296.952 404.918 299.472 404.918 L 299.472 404.918 L 299.472 404.918 Q 300.84 404.918 301.848 405.278 L 301.848 405.278 L 301.524 408.842 L 301.524 408.842 Q 301.056 408.662 300.516 408.662 L 300.516 408.662 L 300.516 408.662 Q 299.652 408.662 299.184 409.22 L 299.184 409.22 L 299.184 409.22 Q 298.716 409.778 298.716 410.75 L 298.716 410.75 L 298.716 413.918 L 301.812 413.918 L 301.812 417.59 L 298.716 417.59 L 298.716 431.918 L 294.396 431.918 L 294.396 431.918 Z  M 303.936 411.182 L 303.936 406.718 L 308.256 406.718 L 308.256 411.182 L 303.936 411.182 L 303.936 411.182 Z  M 303.936 431.918 L 303.936 413.918 L 308.256 413.918 L 308.256 431.918 L 303.936 431.918 L 303.936 431.918 Z  M 316.68 432.278 L 316.68 432.278 Q 314.628 432.278 313.53 431.09 L 313.53 431.09 L 313.53 431.09 Q 312.432 429.902 312.432 427.562 L 312.432 427.562 L 312.432 417.59 L 310.416 417.59 L 310.812 413.918 L 312.432 413.918 L 312.432 409.958 L 316.752 409.49 L 316.752 413.918 L 319.884 413.918 L 319.884 417.59 L 316.752 417.59 L 316.752 426.446 L 316.752 426.446 Q 316.752 427.562 317.202 428.084 L 317.202 428.084 L 317.202 428.084 Q 317.652 428.606 318.624 428.606 L 318.624 428.606 L 319.92 428.606 L 319.524 432.278 L 316.68 432.278 L 316.68 432.278 Z  M 330.504 413.63 L 330.504 413.63 Q 333.204 413.63 334.626 415.412 L 334.626 415.412 L 334.626 415.412 Q 336.048 417.194 336.048 420.218 L 336.048 420.218 L 336.048 431.918 L 331.728 431.918 L 331.728 420.794 L 331.728 420.794 Q 331.728 417.158 329.28 417.158 L 329.28 417.158 L 329.28 417.158 Q 327.588 417.158 326.508 418.706 L 326.508 418.706 L 326.508 431.918 L 322.188 431.918 L 322.188 404.918 L 326.508 404.918 L 326.508 414.962 L 326.508 414.962 Q 328.128 413.63 330.504 413.63 L 330.504 413.63 L 330.504 413.63 Z  M 155.94 438.11 L 155.616 434.222 L 155.616 434.222 Q 156.804 434.222 157.326 433.7 L 157.326 433.7 L 157.326 433.7 Q 157.848 433.178 157.848 431.954 L 157.848 431.954 L 157.848 406.718 L 162.24 406.718 L 162.24 432.782 L 162.24 432.782 Q 162.24 435.446 160.764 436.778 L 160.764 436.778 L 160.764 436.778 Q 159.288 438.11 156.696 438.11 L 156.696 438.11 L 155.94 438.11 L 155.94 438.11 Z  M 169.692 432.278 L 169.692 432.278 Q 167.676 432.278 166.29 430.964 L 166.29 430.964 L 166.29 430.964 Q 164.904 429.65 164.904 427.274 L 164.904 427.274 L 164.904 427.274 Q 164.904 424.79 166.398 423.296 L 166.398 423.296 L 166.398 423.296 Q 167.892 421.802 169.854 421.154 L 169.854 421.154 L 169.854 421.154 Q 171.816 420.506 173.436 420.434 L 173.436 420.434 L 173.436 420.434 Q 173.436 418.85 172.86 418.166 L 172.86 418.166 L 172.86 418.166 Q 172.284 417.482 170.88 417.482 L 170.88 417.482 L 170.88 417.482 Q 169.8 417.482 168.792 417.824 L 168.792 417.824 L 168.792 417.824 Q 167.784 418.166 166.524 418.85 L 166.524 418.85 L 166.236 415.214 L 166.236 415.214 Q 169.116 413.63 172.032 413.63 L 172.032 413.63 L 172.032 413.63 Q 174.732 413.63 176.262 415.232 L 176.262 415.232 L 176.262 415.232 Q 177.792 416.834 177.792 420.29 L 177.792 420.29 L 177.792 425.726 L 177.792 425.726 Q 177.792 427.058 177.9 427.67 L 177.9 427.67 L 177.9 427.67 Q 178.008 428.282 178.242 428.444 L 178.242 428.444 L 178.242 428.444 Q 178.476 428.606 178.98 428.606 L 178.98 428.606 L 179.556 428.606 L 179.268 432.278 L 177.36 432.278 L 177.36 432.278 Q 176.352 432.278 175.434 431.702 L 175.434 431.702 L 175.434 431.702 Q 174.516 431.126 174.084 430.19 L 174.084 430.19 L 174.084 430.19 Q 173.112 431.234 172.104 431.756 L 172.104 431.756 L 172.104 431.756 Q 171.096 432.278 169.692 432.278 L 169.692 432.278 L 169.692 432.278 Z  M 171.168 428.858 L 171.168 428.858 Q 172.392 428.858 173.472 427.562 L 173.472 427.562 L 173.472 423.458 L 173.472 423.458 Q 171.744 423.674 170.592 424.484 L 170.592 424.484 L 170.592 424.484 Q 169.44 425.294 169.44 426.842 L 169.44 426.842 L 169.44 426.842 Q 169.44 427.886 169.908 428.372 L 169.908 428.372 L 169.908 428.372 Q 170.376 428.858 171.168 428.858 L 171.168 428.858 L 171.168 428.858 Z  M 198.996 413.63 L 198.996 413.63 Q 201.876 413.63 203.388 415.412 L 203.388 415.412 L 203.388 415.412 Q 204.9 417.194 204.9 420.218 L 204.9 420.218 L 204.9 431.918 L 200.58 431.918 L 200.58 420.794 L 200.58 420.794 Q 200.58 419.03 200.004 418.094 L 200.004 418.094 L 200.004 418.094 Q 199.428 417.158 198.096 417.158 L 198.096 417.158 L 198.096 417.158 Q 196.764 417.158 196.062 417.932 L 196.062 417.932 L 196.062 417.932 Q 195.36 418.706 195.36 420.218 L 195.36 420.218 L 195.36 431.918 L 191.04 431.918 L 191.04 420.794 L 191.04 420.794 Q 191.04 417.158 188.592 417.158 L 188.592 417.158 L 188.592 417.158 Q 186.9 417.158 185.82 418.706 L 185.82 418.706 L 185.82 431.918 L 181.5 431.918 L 181.5 413.918 L 185.172 413.918 L 185.352 415.358 L 185.352 415.358 Q 187.008 413.63 189.564 413.63 L 189.564 413.63 L 189.564 413.63 Q 191.04 413.63 192.192 414.242 L 192.192 414.242 L 192.192 414.242 Q 193.344 414.854 193.992 415.97 L 193.992 415.97 L 193.992 415.97 Q 194.856 414.854 196.134 414.242 L 196.134 414.242 L 196.134 414.242 Q 197.412 413.63 198.996 413.63 L 198.996 413.63 L 198.996 413.63 Z  M 215.844 432.278 L 215.844 432.278 Q 213.108 432.278 211.2 431.018 L 211.2 431.018 L 211.2 431.018 Q 209.292 429.758 208.338 427.634 L 208.338 427.634 L 208.338 427.634 Q 207.384 425.51 207.384 422.918 L 207.384 422.918 L 207.384 422.918 Q 207.384 420.254 208.284 418.148 L 208.284 418.148 L 208.284 418.148 Q 209.184 416.042 210.948 414.836 L 210.948 414.836 L 210.948 414.836 Q 212.712 413.63 215.16 413.63 L 215.16 413.63 L 215.16 413.63 Q 218.22 413.63 219.984 415.79 L 219.984 415.79 L 219.984 415.79 Q 221.748 417.95 221.748 421.586 L 221.748 421.586 L 221.748 421.586 Q 221.748 422.63 221.532 423.89 L 221.532 423.89 L 211.848 423.89 L 211.848 423.89 Q 212.064 426.338 213.288 427.544 L 213.288 427.544 L 213.288 427.544 Q 214.512 428.75 216.312 428.75 L 216.312 428.75 L 216.312 428.75 Q 218.76 428.75 220.956 427.31 L 220.956 427.31 L 221.064 431.09 L 221.064 431.09 Q 218.868 432.278 215.844 432.278 L 215.844 432.278 L 215.844 432.278 Z  M 211.884 420.866 L 217.392 420.866 L 217.392 420.866 Q 217.392 417.158 214.872 417.158 L 214.872 417.158 L 214.872 417.158 Q 212.388 417.158 211.884 420.866 L 211.884 420.866 L 211.884 420.866 Z  M 228.84 432.278 L 228.84 432.278 Q 227.364 432.278 226.158 431.972 L 226.158 431.972 L 226.158 431.972 Q 224.952 431.666 223.692 431.018 L 223.692 431.018 L 224.088 427.202 L 224.088 427.202 Q 226.608 428.93 228.516 428.93 L 228.516 428.93 L 228.516 428.93 Q 229.74 428.93 230.388 428.462 L 230.388 428.462 L 230.388 428.462 Q 231.036 427.994 231.036 427.166 L 231.036 427.166 L 231.036 427.166 Q 231.036 426.302 230.442 425.744 L 230.442 425.744 L 230.442 425.744 Q 229.848 425.186 228.12 424.358 L 228.12 424.358 L 228.12 424.358 Q 225.816 423.242 224.79 422.072 L 224.79 422.072 L 224.79 422.072 Q 223.764 420.902 223.764 418.85 L 223.764 418.85 L 223.764 418.85 Q 223.764 416.51 225.42 415.07 L 225.42 415.07 L 225.42 415.07 Q 227.076 413.63 229.884 413.63 L 229.884 413.63 L 229.884 413.63 Q 232.404 413.63 234.6 414.962 L 234.6 414.962 L 234.204 418.67 L 234.204 418.67 Q 233.16 417.77 232.206 417.302 L 232.206 417.302 L 232.206 417.302 Q 231.252 416.834 230.172 416.834 L 230.172 416.834 L 230.172 416.834 Q 229.128 416.834 228.498 417.284 L 228.498 417.284 L 228.498 417.284 Q 227.868 417.734 227.868 418.562 L 227.868 418.562 L 227.868 418.562 Q 227.868 419.39 228.534 419.912 L 228.534 419.912 L 228.534 419.912 Q 229.2 420.434 231.216 421.478 L 231.216 421.478 L 231.216 421.478 Q 233.232 422.522 234.186 423.764 L 234.186 423.764 L 234.186 423.764 Q 235.14 425.006 235.14 426.986 L 235.14 426.986 L 235.14 426.986 Q 235.14 429.434 233.43 430.856 L 233.43 430.856 L 233.43 430.856 Q 231.72 432.278 228.84 432.278 L 228.84 432.278 L 228.84 432.278 Z  M 118.572 431.918 L 118.572 406.718 L 126.708 406.718 L 126.708 406.718 Q 129.804 406.718 132.216 408.23 L 132.216 408.23 L 132.216 408.23 Q 134.628 409.742 135.996 412.586 L 135.996 412.586 L 135.996 412.586 Q 137.364 415.43 137.364 419.318 L 137.364 419.318 L 137.364 419.318 Q 137.364 423.206 135.996 426.05 L 135.996 426.05 L 135.996 426.05 Q 134.628 428.894 132.216 430.406 L 132.216 430.406 L 132.216 430.406 Q 129.804 431.918 126.708 431.918 L 126.708 431.918 L 118.572 431.918 L 118.572 431.918 Z  M 122.964 427.886 L 126.708 427.886 L 126.708 427.886 Q 129.588 427.886 131.064 425.618 L 131.064 425.618 L 131.064 425.618 Q 132.54 423.35 132.54 419.318 L 132.54 419.318 L 132.54 419.318 Q 132.54 415.286 131.064 413.018 L 131.064 413.018 L 131.064 413.018 Q 129.588 410.75 126.708 410.75 L 126.708 410.75 L 122.964 410.75 L 122.964 427.886 L 122.964 427.886 Z  M 140.1 431.918 L 140.1 413.918 L 143.88 413.918 L 144.168 415.826 L 144.168 415.826 Q 145.176 414.71 146.058 414.17 L 146.058 414.17 L 146.058 414.17 Q 146.94 413.63 148.128 413.63 L 148.128 413.63 L 148.128 413.63 Q 148.632 413.63 149.064 413.738 L 149.064 413.738 L 148.74 418.094 L 148.74 418.094 Q 148.2 417.914 147.588 417.914 L 147.588 417.914 L 147.588 417.914 Q 146.724 417.914 146.04 418.31 L 146.04 418.31 L 146.04 418.31 Q 145.356 418.706 144.42 419.642 L 144.42 419.642 L 144.42 431.918 L 140.1 431.918 L 140.1 431.918 Z " fill-rule="evenodd" fill="rgb(255,255,255)"/></g></svg>