<?xml version="1.0" standalone="no"?>
<!DOCTYPE svg PUBLIC "-//W3C//DTD SVG 20010904//EN"
 "http://www.w3.org/TR/2001/REC-SVG-20010904/DTD/svg10.dtd">
<svg version="1.0" xmlns="http://www.w3.org/2000/svg"
 width="700.000000pt" height="700.000000pt" viewBox="0 0 700.000000 700.000000"
 preserveAspectRatio="xMidYMid meet">
<metadata>
Created by potrace 1.11, written by Peter Selinger 2001-2013
</metadata>
<g transform="translate(0.000000,700.000000) scale(0.100000,-0.100000)"
fill="#000000" stroke="none">
<path d="M2917 6427 c-317 -315 -577 -576 -577 -581 0 -4 -524 -530 -1164
-1167 -640 -637 -1166 -1167 -1169 -1178 -3 -14 263 -284 1162 -1176 641 -637
1169 -1166 1172 -1174 4 -9 266 -272 583 -585 l576 -568 580 573 c319 315 580
577 580 582 0 5 524 531 1164 1168 640 637 1166 1167 1169 1178 3 14 -263 284
-1162 1176 -641 637 -1169 1166 -1172 1174 -6 15 -1152 1152 -1160 1150 -2 0
-264 -257 -582 -572z m1183 -2332 l595 -595 -598 -598 -597 -597 -597 597
-598 598 595 595 c327 327 597 595 600 595 3 0 273 -268 600 -595z"/>
</g>
</svg>
